# xmcd
#
# Track frame offsets: 
#        150
#        22050
#        42080
#        68640
#        89904
#        110615
#        128447
#        150802
#        171247
#        191482
#
# Disc length: 2815 seconds
#
# Revision: 5
# Processed by: cddbd v1.5.2PL0 Copyright (c) Steve Scherf et al.
# Submitted via: ExactAudioCopy v1.1
#
DISCID=7b0afd0a
DTITLE=游鴻明 - 一天一萬年
DYEAR=1998
DGENRE=Pop
TTITLE0=一天一萬年
TTITLE1=愛我
TTITLE2=愛一回傷一回
TTITLE3=我的愛情被你燒成灰
TTITLE4=戀上一個人
TTITLE5=你連笑起來都不快樂
TTITLE6=受困思念
TTITLE7=愛我的人和我愛的人
TTITLE8=若是我回頭來牽妳的手
TTITLE9=狂悲狂喜
EXTD=
EXTT0=
EXTT1=
EXTT2=
EXTT3=
EXTT4=
EXTT5=
EXTT6=
EXTT7=
EXTT8=
EXTT9=
PLAYORDER=
